<svg id="Capa_1" enable-background="new 0 0 512.687 512.687" height="512" viewBox="0 0 512.687 512.687" width="512" xmlns="http://www.w3.org/2000/svg"><g><g><path d="m298.74 7.504h-117.5l-16.905 9.944v27.463l16.905 3.833h9.96c25.19 0 45.6 20.42 45.6 45.6v30.86h53.4l.05-45.73c0-2.87 2.33-5.19 5.19-5.19h52.34c2.53 0 4.58-2.05 4.58-4.58v-8.58c0-29.62-24.01-53.62-53.62-53.62z" fill="#f9f3f1"/><path d="m290.242 85.941h-23.388c-3.954 0-7.16-3.205-7.16-7.16 0-25.184-20.416-45.6-45.6-45.6h-36.96c-3.761 0-6.81-3.049-6.81-6.81v-12.446l-5.99 3.524v27.463l16.905 3.833h9.96c25.184 0 45.6 20.416 45.6 45.6v30.86h19.544 33.857l.017-15.563z" fill="#f3eae6"/><path d="m290.252 100.942h-50.958c-5.54 0-10.031 4.491-10.031 10.031v38.498h71.019v-38.498c0-5.541-4.491-10.031-10.03-10.031z" fill="#efe2dd"/><g><path d="m216.985 143.701v34.99l-65.374 45.417c-8.883 6.171-14.18 16.301-14.18 27.117v202.955c0 28.17 22.837 51.007 51.007 51.007h135.81c28.17 0 51.007-22.837 51.007-51.007v-221.651c0-15.074-7.206-29.239-19.388-38.115l-43.417-31.634v-19.079c0-5.65-4.58-10.23-10.23-10.23h-75.004c-5.651-.001-10.231 4.58-10.231 10.23z" fill="#f2fbff"/><path d="m197.895 454.179v-202.954c0-10.816 5.297-20.946 14.18-27.117l49.581-34.446c9.893-6.873 15.793-18.156 15.793-30.202v-15.759c0-5.65 4.58-10.23 10.23-10.23h-60.464c-5.65 0-10.23 4.58-10.23 10.23v34.99l-65.374 45.418c-8.883 6.171-14.18 16.301-14.18 27.117v202.954c0 28.17 22.837 51.007 51.007 51.007h60.464c-28.17-.001-51.007-22.837-51.007-51.008z" fill="#dff6fd"/><g id="XMLID_549_"><g><path d="m181.24 7.504v41.24h-27c-3.76 0-6.81-3.04-6.81-6.8v-27.64c0-3.76 3.05-6.8 6.81-6.8z" fill="#f3eae6"/></g></g><path d="m177.135 33.182c-3.76 0-6.81-3.04-6.81-6.8v-18.878h-16.085c-3.76 0-6.81 3.04-6.81 6.8v27.64c0 3.76 3.05 6.8 6.81 6.8h27v-15.562z" fill="#efe2dd"/><path d="m249.72 152.604h30.1v206.84h-30.1z" fill="#dff6fd"/><path d="m249.72 152.604v45.351l11.936-8.292c9.893-6.873 15.793-18.156 15.793-30.202v-6.856h-27.729z" fill="#c8effe"/><path d="m293.551 133.47h-57.556l8.178 34.735c.606 2.575 2.904 4.395 5.55 4.395h30.099c2.646 0 4.944-1.82 5.55-4.395z" fill="#dff6fd"/><path d="m287.677 133.47h-51.682l8.178 34.735c.606 2.575 2.904 4.395 5.55 4.395h25.295c1.584-4.14 2.431-8.585 2.431-13.14v-15.759c0-5.65 4.579-10.229 10.228-10.231z" fill="#c8effe"/><g><path d="m345.26 346.015v103.08c0 14.409-11.681 26.09-26.09 26.09h-125.65c-14.409 0-26.09-11.681-26.09-26.09v-103.08c0-3.629 2.942-6.57 6.57-6.57h164.689c3.629-.001 6.571 2.941 6.571 6.57z" fill="#fef48b"/></g><path d="m197.895 339.444h-23.895c-3.629 0-6.57 2.942-6.57 6.571v103.08c0 14.409 11.681 26.09 26.09 26.09h8.904c-2.9-6.407-4.528-13.514-4.528-21.005v-114.736z" fill="#fef056"/><g><g id="XMLID_542_"><g><path d="m279.82 339.444v94.75c0 1.95-1.58 3.52-3.52 3.52h-23.05c-1.95 0-3.53-1.57-3.53-3.52v-94.75z" fill="#fef056"/></g></g></g></g></g><g><path d="m375.255 386.456c-4.142 0-7.5 3.357-7.5 7.5v60.224c0 23.989-19.517 43.507-43.507 43.507h-135.81c-23.99 0-43.507-19.518-43.507-43.507v-202.954c0-8.356 4.097-16.191 10.958-20.959l9.165-6.366c3.402-2.362 4.244-7.036 1.881-10.438-2.363-3.4-7.036-4.243-10.438-1.881l-9.165 6.367c-10.896 7.569-17.4 20.01-17.4 33.277v202.954c0 32.261 26.246 58.507 58.507 58.507h135.81c32.261 0 58.507-26.246 58.507-58.507v-60.224c-.001-4.143-3.359-7.5-7.501-7.5z"/><path d="m360.283 188.352-40.333-29.388v-15.264c0-7.832-5.11-14.483-12.167-16.823v-15.904c0-6.981-4.111-13.004-10.031-15.822v-13.368h50.031c6.661 0 12.08-5.419 12.08-12.08v-8.577c0-33.705-27.421-61.126-61.126-61.126h-144.5c-7.89 0-14.309 6.418-14.309 14.308v27.632c0 7.89 6.419 14.308 14.309 14.308h36.965c21.008 0 38.099 17.092 38.099 38.1v2.24c-4.549 3.17-7.538 8.432-7.538 14.385v15.864c-7.115 2.307-12.278 8.99-12.278 16.864v31.068l-26.647 18.513c-3.401 2.363-4.244 7.036-1.88 10.438 2.364 3.403 7.038 4.244 10.439 1.88l29.868-20.75c2.018-1.401 3.221-3.702 3.221-6.159v-34.991c0-1.506 1.225-2.73 2.73-2.73h2.84l6.817 28.954c.776 3.296 2.729 6.04 5.351 7.847v154.174h-12.96c-4.142 0-7.5 3.357-7.5 7.5s3.358 7.5 7.5 7.5h12.96v87.247c0 6.08 4.946 11.026 11.026 11.026h23.046c6.08 0 11.026-4.946 11.026-11.026v-87.247h50.433v102.145c0 10.254-8.342 18.597-18.597 18.597h-125.63c-10.254 0-18.597-8.343-18.597-18.597v-102.146h22.369c4.142 0 7.5-3.357 7.5-7.5s-3.358-7.5-7.5-7.5h-29.869c-4.142 0-7.5 3.357-7.5 7.5v109.646c0 18.525 15.071 33.597 33.597 33.597h125.63c18.525 0 33.597-15.071 33.597-33.597v-109.646c0-4.143-3.358-7.5-7.5-7.5h-57.933v-154.173c2.621-1.807 4.574-4.55 5.351-7.847l6.817-28.954h2.729c1.505 0 2.73 1.225 2.73 2.73v19.079c0 2.397 1.146 4.65 3.083 6.062l43.417 31.634c10.21 7.439 16.305 19.422 16.305 32.054v129.465c0 4.143 3.358 7.5 7.5 7.5s7.5-3.357 7.5-7.5v-129.466c.001-17.409-8.4-33.924-22.471-44.176zm-123.52-62.382v-14.997c0-1.396 1.135-2.531 2.531-2.531h50.958c1.396 0 2.531 1.136 2.531 2.531v14.997zm-81.835-110.97h18.813v26.248h-18.813zm36.274 26.248h-2.46v-26.248h109.995c25.434 0 46.126 20.692 46.126 46.126v5.657h-49.421c-6.998 0-12.69 5.693-12.69 12.69v13.968h-38.474c-.488-28.861-24.101-52.193-53.076-52.193zm81.12 388.97h-15.099v-83.273h15.099zm-15.099-98.274v-151.844h15.099v151.845h-15.099zm21.175-166.844h-27.251l-5.682-24.13h38.615z"/></g></g></svg>